<?xml version="1.0" encoding="UTF-8"?><svg id="a" xmlns="http://www.w3.org/2000/svg" viewBox="0 0 281.39 131.06"><defs><style>.b{fill:#fff;}.c{fill:#4f36e8;}</style></defs><g><path class="b" d="M265.4,50.21l15.35-21.27V1.07H83.85V13.85c-3.57-4.15-7.99-7.37-13.24-9.59C63.91,1.43,55.92,0,46.85,0S29.79,1.43,23.1,4.26c-7.54,3.18-13.4,8.4-17.42,15.51C1.86,26.52,0,34.92,0,45.46c0,13.08,3.03,23.4,9.01,30.66,4.62,5.61,10.63,9.64,17.95,12.05,1.26,4.55,3.47,8.52,6.61,11.87,5.09,5.43,12.61,8.19,22.36,8.19,3.36,0,6.59-.21,9.61-.63,3.1-.43,5.55-.92,7.48-1.5l7.13-2.14v-23.12c1.47-1.25,2.84-2.61,4.11-4.09,1.52-1.78,2.86-3.75,4.02-5.9,.61,1.1,1.27,2.18,2.01,3.21,4.12,5.72,9.72,10.07,16.65,12.91,6.39,2.62,13.56,3.96,21.32,3.96s14.93-1.33,21.32-3.96c6.23-2.56,11.38-6.35,15.36-11.25v14.14h116.46V50.21h-15.99Z"/><g><path class="c" d="M66.72,13.47c-5.48-2.31-12.11-3.47-19.87-3.47s-14.39,1.16-19.87,3.47c-5.48,2.31-9.69,6.05-12.6,11.22-2.92,5.16-4.38,12.09-4.38,20.78,0,10.75,2.24,18.85,6.73,24.3s10.82,8.88,19.01,10.31c.28,5.41,1.99,9.79,5.13,13.14,3.13,3.35,8.15,5.02,15.06,5.02,2.92,0,5.66-.18,8.23-.53,2.56-.36,4.56-.75,5.98-1.18v-14.31c-2.42,.85-4.99,1.28-7.69,1.28-3.42,0-5.38-1.07-5.88-3.2,8.69-1.21,15.38-4.56,20.08-10.04,4.7-5.48,7.05-13.74,7.05-24.78,0-8.69-1.46-15.61-4.38-20.78-2.92-5.16-7.12-8.9-12.6-11.22Zm-11.8,42.52c-1.6,2.03-4.29,3.04-8.07,3.04s-6.46-1.02-8.06-3.04c-1.6-2.03-2.4-5.54-2.4-10.52s.8-8.49,2.4-10.52c1.6-2.03,4.29-3.04,8.06-3.04s6.46,1.01,8.07,3.04c1.6,2.03,2.4,5.54,2.4,10.52s-.8,8.49-2.4,10.52Z"/><path class="c" d="M136.8,49.42c0,6.41-2.85,9.61-8.55,9.61s-8.55-3.2-8.55-9.61V11.07h-25.85V52.73c0,6.13,1.51,11.29,4.54,15.49,3.03,4.2,7.14,7.37,12.34,9.51,5.2,2.14,11.04,3.2,17.52,3.2s12.32-1.07,17.52-3.2c5.2-2.14,9.31-5.3,12.34-9.51,3.03-4.2,4.54-9.36,4.54-15.49V11.07h-25.85V49.42Z"/><rect class="c" x="174.93" y="11.07" width="25.85" height="68.79"/><polygon class="c" points="245.86 60.21 270.75 25.7 270.75 11.07 212.96 11.07 212.96 32.22 236.67 32.22 211.46 67.15 211.46 79.86 271.39 79.86 271.39 60.21 245.86 60.21"/></g></g><g><path class="b" d="M132.37,123.67l-.39-.14-.36-.17-10.5-4.87c-.93-.43-1.4-.92-1.4-1.49,0-.6,.51-1.12,1.54-1.57l11.51-5.1c.78,0,1.18,.38,1.18,1.15,0,.6-.41,1.08-1.23,1.45l-8.88,4.05,8.88,4.1c.6,.28,.98,.62,1.15,1.01l.08,.36c0,.88-.52,1.28-1.57,1.21Z"/><path class="b" d="M147.7,126.11h-.36l-.56-.03-1.2-.25c-.41-.09-.88-.26-1.4-.5-.09,.41-.53,.62-1.32,.62-.07,0-.21,0-.42,.03-.15,.02-.26,.02-.34,0-.09-.02-.18-.07-.25-.14l-.34-.56-.11-.7,.14-2.49c.04-.52,.1-.88,.19-1.06,.15-.26,.43-.39,.86-.39,.74,0,1.09,.36,1.05,1.06v.64c.21,.34,.79,.7,1.76,1.09,.43,.17,1.23,.25,2.41,.25,1.03,0,1.86-.23,2.49-.69,.64-.46,.95-1.07,.95-1.83,0-.95-.5-1.61-1.51-1.99-.9-.13-1.82-.29-2.77-.47-1.77-.34-2.99-.74-3.64-1.2-1.12-.78-1.68-1.94-1.68-3.47,0-1.4,.59-2.6,1.78-3.59,1.19-.99,2.61-1.49,4.27-1.49,.69,0,1.72,.21,3.08,.64,.19-.35,.53-.53,1.04-.53,.47,0,.8,.09,.99,.27,.2,.18,.34,.52,.43,1.02l.17,2.91c.06,.88-.38,1.32-1.32,1.32-.36,0-.67-.27-.95-.81l-.39-1.01c-.36-.91-1.4-1.37-3.14-1.37-.93,0-1.7,.23-2.31,.7-.61,.47-.91,1.08-.91,1.85,0,.82,.48,1.39,1.43,1.71,1.51,.26,3.11,.55,4.79,.87,2.26,.67,3.39,2.14,3.39,4.4,0,1.57-.58,2.83-1.75,3.78s-2.68,1.43-4.55,1.43Z"/><path class="b" d="M167.93,125.94c-2,0-3.65-.62-4.96-1.86-1.31-1.24-1.96-2.82-1.96-4.75s.66-3.45,1.98-4.73c1.32-1.29,2.95-1.93,4.89-1.93,1.27,0,2.56,.31,3.87,.92,.19-.47,.61-.7,1.26-.7,.84,0,1.26,.64,1.26,1.93v2.41c0,.86-.44,1.29-1.32,1.29-.28,0-.53-.07-.76-.22l-.42-.5-.22-1.15c-.04-.19-.34-.45-.9-.8-.56-.35-1.38-.52-2.46-.52-1.27,0-2.29,.36-3.07,1.08s-1.16,1.69-1.16,2.91,.37,2.16,1.12,2.94c.75,.78,1.7,1.17,2.86,1.17,1.03,0,1.89-.23,2.58-.68l.39-.25,.67-.48c.75-.53,1.25-.79,1.51-.79,.82,0,1.23,.43,1.23,1.29,0,.78-.69,1.55-2.07,2.31-1.38,.76-2.82,1.14-4.31,1.14Z"/><path class="b" d="M193.95,116.22c-1.42-.48-2.18-.73-2.27-.73-.69,0-1.51,.35-2.47,1.05-.3,.22-.91,.8-1.85,1.74v4.83h4.01c.88,0,1.32,.42,1.32,1.25s-.47,1.27-1.4,1.27h-8.49c-.93,0-1.4-.42-1.4-1.27s.48-1.25,1.43-1.25h1.93v-7.62h-.56c-.86,0-1.44-.09-1.75-.27-.31-.18-.46-.5-.46-.98,0-.85,.46-1.27,1.37-1.27h2.94c.62,0,.97,.28,1.06,.84v1.37c1.55-1.68,3.27-2.52,5.15-2.52,.82,0,1.52,.19,2.09,.56,.57,.37,.85,.85,.85,1.43,0,.41-.15,.78-.45,1.09-.3,.32-.65,.48-1.06,.48Z"/><path class="b" d="M213.9,125.63h-10.03c-.42,0-.77-.11-1.07-.34-.2-.24-.34-.55-.42-.92,0-.84,.49-1.26,1.49-1.26h3.58v-7.81h-2.18c-.95,0-1.43-.42-1.43-1.25s.45-1.27,1.35-1.27h3.85c.66,0,1.01,.29,1.07,.87v9.47h3.84c.88,0,1.32,.41,1.32,1.23s-.46,1.29-1.37,1.29Zm-5.22-14.71c-.63,0-1.06-.11-1.29-.34-.22-.22-.34-.65-.34-1.29,0-.93,.06-1.52,.17-1.76,.22-.48,.71-.73,1.46-.73,.65,0,1.09,.14,1.32,.42,.22,.28,.34,.85,.34,1.71,0,.78-.11,1.31-.32,1.58-.21,.27-.66,.41-1.33,.41Z"/><path class="b" d="M223.89,115.52c-.39,0-.64-.02-.75-.06-.75-.09-1.13-.5-1.13-1.2,0-.39,.12-.72,.36-.98,.26-.19,.6-.28,1.01-.28h2.02c.6,0,.95,.27,1.06,.81v.59c1.16-.93,2.49-1.4,3.97-1.4,1.88,0,3.44,.63,4.68,1.89,1.24,1.26,1.86,2.83,1.86,4.72s-.6,3.29-1.8,4.48c-1.2,1.2-2.7,1.79-4.51,1.79-1.67,0-3.07-.49-4.2-1.46v4.12h2.8c.37,0,.69,.12,.94,.36,.25,.24,.38,.55,.38,.92,0,.82-.47,1.23-1.4,1.23h-5.8c-.37,0-.7-.12-.97-.35-.27-.23-.41-.53-.41-.88,0-.84,.63-1.27,1.88-1.29v-13.02Zm6.36,.17c-1.12,0-2.03,.35-2.73,1.05s-1.05,1.62-1.05,2.76,.36,2.01,1.06,2.73c.71,.72,1.62,1.08,2.72,1.08s2.01-.36,2.73-1.08c.72-.72,1.08-1.63,1.08-2.73s-.36-2.01-1.06-2.73-1.62-1.08-2.74-1.08Z"/><path class="b" d="M258.23,124.09c-.5,.54-1.75,1.06-3.72,1.57-.58,.15-1.22,.22-1.93,.22-2.69,0-4.29-1.1-4.79-3.31-.09-.41-.14-1.09-.14-2.02v-4.47h-1.85c-.49,0-.83-.09-1.02-.26-.2-.18-.32-.49-.38-.96,0-.87,.7-1.3,2.1-1.3h1.15v-3.05c0-.95,.44-1.43,1.32-1.43,.48,0,.83,.16,1.04,.48,.21,.32,.31,.88,.31,1.68v2.32h4.85c1.03,0,1.54,.43,1.54,1.28,0,.31-.12,.62-.36,.91-.28,.22-.64,.33-1.06,.33h-4.96v4.06c0,1.05,.07,1.79,.21,2.2,.14,.41,.4,.69,.77,.82l.56,.2c.97,.04,2.05-.18,3.25-.66l1.37-.54,.84-.23c.73,0,1.14,.41,1.23,1.23,0,.39-.1,.7-.31,.92Z"/><path class="b" d="M278.59,118.43l-.22,.11-10.36,4.82c-.49,.22-.87,.34-1.15,.34-.37,0-.67-.11-.9-.34-.13-.19-.23-.46-.31-.82,0-.3,.1-.58,.31-.84,.3-.24,.62-.45,.98-.62l8.91-4.08-8.9-4.07c-.86-.39-1.29-.88-1.29-1.48,0-.3,.1-.56,.31-.78,.24-.17,.53-.28,.87-.34l.5,.06,.67,.28,10.53,4.82c.91,.41,1.37,.91,1.37,1.51,0,.52-.44,1-1.32,1.43Z"/></g></svg>